<?xml version="1.0" encoding="utf-8"?>
<!-- Generator: Adobe Illustrator 28.2.0, SVG Export Plug-In . SVG Version: 6.00 Build 0)  -->
<svg version="1.1" id="Layer_1" xmlns="http://www.w3.org/2000/svg" xmlns:xlink="http://www.w3.org/1999/xlink" x="0px" y="0px"
	 viewBox="0 0 100 100" style="enable-background:new 0 0 100 100;" xml:space="preserve">
<style type="text/css">
	.st0{fill:#FFF8ED;}
	.st1{fill:#FFFFFF;stroke:#121317;stroke-linecap:round;stroke-linejoin:round;stroke-miterlimit:10;}
	.st2{fill:#A17C52;stroke:#121317;stroke-linecap:round;stroke-linejoin:round;stroke-miterlimit:10;}
	.st3{fill:#4976B2;stroke:#121317;stroke-linecap:round;stroke-linejoin:round;stroke-miterlimit:10;}
	.st4{fill:none;stroke:#121317;stroke-linecap:round;stroke-linejoin:round;stroke-miterlimit:10;}
	.st5{fill:#121317;stroke:#121317;stroke-linecap:round;stroke-linejoin:round;stroke-miterlimit:10;}
	.st6{fill:#EBAB70;stroke:#121317;stroke-linecap:round;stroke-linejoin:round;stroke-miterlimit:10;}
	.st7{fill:#052D67;stroke:#121317;stroke-linecap:round;stroke-linejoin:round;stroke-miterlimit:10;}
	.st8{fill:#DCDCDC;stroke:#121317;stroke-linecap:round;stroke-linejoin:round;stroke-miterlimit:10;}
	.st9{fill:#E2BE78;stroke:#121317;stroke-linecap:round;stroke-linejoin:round;stroke-miterlimit:10;}
	.st10{fill:#FFD9BF;stroke:#121317;stroke-linecap:round;stroke-linejoin:round;stroke-miterlimit:10;}
	.st11{fill:#77CAAB;stroke:#121317;stroke-linecap:round;stroke-linejoin:round;stroke-miterlimit:10;}
	.st12{fill:#FFF6EB;stroke:#121317;stroke-linecap:round;stroke-linejoin:round;stroke-miterlimit:10;}
</style>
<circle class="st0" cx="50" cy="50" r="50"/>
<polygon class="st1" points="32.43,42.86 32.98,46.08 35.02,45 35.02,42.33 "/>
<path class="st2" d="M24.63,64.19L24.63,64.19c1.65-0.47,2.63-2.16,2.24-3.83l-3.56-14.93l-1.2-5.2l-2.85,0.55l-3.42,0.65
	c1.25,7.43,3.54,16.05,4.8,20.55C21.13,63.69,22.92,64.68,24.63,64.19z"/>
<path class="st3" d="M8.9,47.06V81.3h13.98c0-15.36-0.73-34.23-0.73-34.23H8.9z"/>
<path class="st1" d="M22.12,81.29c0,0,0.61,2.83,1.7,5.35H12.7v-5.35H22.12z"/>
<path class="st1" d="M19.46,81.29c0,0,0.61,2.83,1.7,5.35H10.03v-5.35H19.46z"/>
<path class="st1" d="M19.46,81.29c0-0.78,0-32.04,0-32.04"/>
<path class="st1" d="M7.08,61.31"/>
<path class="st1" d="M7.15,73.38"/>
<path class="st3" d="M22.42,47.07l-8.61-0.05l1.12-5.22l-2.82-0.71L7.87,40c1.47-6.11,4.63-13.58,7.91-14.99l3.51,4.06l0.63-1.87
	C22.71,32.93,22.42,47.07,22.42,47.07z"/>
<polygon class="st1" points="10.07,46.99 13.81,47.01 14.93,41.79 12.12,41.08 "/>
<polyline class="st4" points="17.68,35.14 15.99,42.07 14.93,41.79 "/>
<path class="st2" d="M19.91,27.2L19.91,27.2l-0.63,1.87l-3.51-4.06c0.67-0.29,1.33-0.33,1.99-0.07
	C18.63,25.21,19.34,26.03,19.91,27.2z"/>
<g>
	<path class="st5" d="M13.51,22.13c-0.22-0.53-0.34-1.12-0.34-1.74c0-2.51,2.04-4.55,4.55-4.55c0.17,0,0.34,0.01,0.5,0.03
		C18.21,15.87,19.74,21.67,13.51,22.13z"/>
	<path class="st2" d="M22.22,21.01c-0.26,1.99-1.87,3.61-3.86,3.88c-2.16,0.3-4.09-0.92-4.86-2.76c6.23-0.46,4.7-6.26,4.7-6.26
		C20.69,16.14,22.57,18.39,22.22,21.01z"/>
	<circle class="st5" cx="13.88" cy="13.3" r="3.53"/>
</g>
<g>
	<polygon class="st1" points="82.3,39.46 72.8,30.68 67.54,36.46 80.48,48.24 	"/>
	<path class="st6" d="M72.8,30.68c0,0-3.73-4.09-5.68-1.6c-1.98,2.52,1.53,6.18,1.53,6.18L72.8,30.68z"/>
	<path class="st7" d="M92.59,43.94V81.3h-14.6c0.35-27.02,1.35-37.36,1.35-37.36H92.59z"/>
	<path class="st1" d="M79.36,81.29c0,0-0.61,2.83-1.7,5.35h11.13v-5.35H79.36z"/>
	<path class="st1" d="M82.03,81.29c0,0-0.61,2.83-1.7,5.35h11.13v-5.35H82.03z"/>
	<path class="st1" d="M82.03,81.29c0-0.78,0-31.2,0-31.2"/>
	<path class="st1" d="M85.39,34.79l5.79,26.92l7.99-1.67c0,0-3.93-35.3-15.19-35.3l1.11,48.3h9.51l0.07-12.07"/>
	<path class="st7" d="M83.98,24.73c-4.35,1.36-4.65,19.21-4.65,19.21h5.09L83.98,24.73z"/>
	<path class="st6" d="M91.98,61.54c0,0,0.62,4.97,4,4.42c3.38-0.55,1.97-5.67,1.97-5.67L91.98,61.54z"/>
	<g>
		<path class="st6" d="M79.05,19.77c0,2.73,2.21,4.94,4.93,4.94c1.86,0,3.48-1.03,4.32-2.55c0.03-0.04,0.05-0.08,0.07-0.13
			c0-0.01,0-0.01,0-0.01c0.13-0.44,0.37-1.73-0.93-2.31c-0.45-0.2-0.9-0.17-1.28-0.06c-0.63,0.19-1.08,0.61-1.08,0.61l-1.44-3.42
			l-3.15-0.55C79.6,17.19,79.05,18.42,79.05,19.77z"/>
		<path class="st8" d="M83.63,16.85l1.44,3.42c0,0,0.45-0.42,1.08-0.61c0.38-0.11,0.83-0.14,1.28,0.06c1.3,0.58,1.06,1.86,0.93,2.31
			c0.35-0.68,0.55-1.44,0.55-2.26c0-0.74-0.16-1.44-0.46-2.07l-4.7-0.83L83.63,16.85z"/>
	</g>
	<path class="st8" d="M80.48,16.3l3.15,0.55l0.14,0.03l4.7,0.83c0,0,0-0.01-0.01-0.01c-0.03-0.14-0.36-1.3-1.34-2.24
		c-1.43-1.39-2.72-0.7-4.35-1.9c-1.18-0.88-2.78-0.51-3,0.88C79.6,15.56,80.48,16.3,80.48,16.3z"/>
</g>
<rect x="0.71" y="58.51" class="st1" width="15.89" height="11.34"/>
<path class="st2" d="M7.04,64.56L7.04,64.56c1.7,0.27,3.3-0.84,3.65-2.52l3.12-15.03l1.12-5.22l-2.82-0.71l-3.37-0.86
	c-2.02,7.26-3.6,16.03-4.37,20.64C4.09,62.63,5.28,64.28,7.04,64.56z"/>
<g>
	<path class="st9" d="M52.72,20.79c0,0.82-0.22,1.58-0.59,2.23c0,0-2.5,0.5-2.57-2.57c-0.06-2.75-2.33-0.93-2.55-3.99
		c0.38-0.11,0.79-0.16,1.21-0.16C50.71,16.3,52.72,18.31,52.72,20.79z"/>
	<path class="st10" d="M52.13,23.03c-0.78,1.36-2.23,2.27-3.91,2.27c-2.48,0-4.5-2.02-4.5-4.5c0-2.06,1.39-3.8,3.29-4.33
		c0.22,3.06,2.49,1.25,2.55,3.99C49.62,23.53,52.13,23.03,52.13,23.03z"/>
	<path class="st1" d="M65.44,57.29l-6.5,1.48c-0.77-3.4-1.98-9.13-2.95-13.76l7.17-1.88C64.48,49.03,65.16,54.59,65.44,57.29z"/>
	<path class="st10" d="M59.18,59.79c-0.08-0.31-0.16-0.66-0.24-1.03l6.5-1.48c0.11,1.08,0.16,1.7,0.16,1.7
		C66.27,64.57,60.41,65.05,59.18,59.79z"/>
	<line class="st1" x1="41.02" y1="45" x2="33.85" y2="43.13"/>
	<path class="st11" d="M61.42,81.26H50.6l-2.37-30.77l-0.01-0.06v0.06l-2.37,30.77H35.02c0.75-15.34,2.78-27.31,4.1-33.79h18.21
		C58.65,53.95,60.67,65.92,61.42,81.26z"/>
	<path class="st1" d="M35.02,81.25c0,0-0.6,2.8-1.68,5.3h11.01v-5.3H35.02z"/>
	<path class="st1" d="M61.42,81.25c0,0,0.6,2.8,1.68,5.3H52.1v-5.3H61.42z"/>
	<g>
		<path class="st11" d="M57.73,45.13l-0.43-4.48l0.19,2l0.46,4.82H38.48l0.45-4.69l0.2-2.13l-0.42,4.4l-7.14-2.49
			c2.96-7.67,7.78-14.29,12.54-16.31l4.11,3.47l4.12-3.47c4.7,2,10.46,8.64,13.1,16.89C65.46,43.2,57.73,45.13,57.73,45.13z"/>
		<path class="st1" d="M52.34,26.24l-4.12,3.47l-4.11-3.47c1.41-0.61,2.79-0.95,4.11-0.95C49.54,25.3,50.93,25.63,52.34,26.24z"/>
	</g>
	<line class="st1" x1="39.46" y1="37.19" x2="38.48" y2="47.47"/>
	<line class="st1" x1="56.98" y1="37.19" x2="57.95" y2="47.47"/>
</g>
<ellipse transform="matrix(0.8515 -0.5243 0.5243 0.8515 -2.5626 32.1643)" class="st9" cx="55.51" cy="20.61" rx="2.25" ry="4.43"/>
<g>
	<line class="st1" x1="48.22" y1="29.73" x2="48.23" y2="32.97"/>
	<rect x="45.04" y="32.91" class="st1" width="6.36" height="3.95"/>
</g>
<g>
	<polygon class="st12" points="41.6,49.15 35.48,44.83 32.43,32.45 38.55,36.77 	"/>
	<polygon class="st12" points="49.61,46.26 41.6,49.15 38.55,36.77 47.76,33.81 48.92,38.53 47.96,39.56 	"/>
</g>
<circle class="st10" cx="36" cy="46.53" r="3.36"/>
<rect x="47.36" y="28.86" class="st12" width="1.71" height="1.71"/>
<line class="st6" x1="74.92" y1="32.64" x2="69.66" y2="38.39"/>
<line class="st6" x1="90.58" y1="58.94" x2="98.8" y2="57.25"/>
</svg>
