<?xml version="1.0" encoding="utf-8"?>
<!-- Generator: Adobe Illustrator 28.5.0, SVG Export Plug-In . SVG Version: 9.03 Build 54727)  -->
<svg version="1.0" id="Layer_1" xmlns="http://www.w3.org/2000/svg" xmlns:xlink="http://www.w3.org/1999/xlink" x="0px" y="0px"
	 viewBox="0 0 545 408" style="enable-background:new 0 0 545 408;" xml:space="preserve">
<style type="text/css">
	.st0{fill:#FFF1CE;stroke:#131418;stroke-width:1.5;stroke-linecap:round;stroke-linejoin:round;stroke-miterlimit:10;}
	.st1{fill:#9FE0E9;stroke:#121317;stroke-linecap:round;stroke-linejoin:round;stroke-miterlimit:10;}
	.st2{fill:#FFFFFF;stroke:#131418;stroke-width:1.5;stroke-linecap:round;stroke-linejoin:round;stroke-miterlimit:10;}
	.st3{fill:#E7947B;stroke:#121317;stroke-linecap:round;stroke-linejoin:round;stroke-miterlimit:10;}
	.st4{fill:#FFFFFF;stroke:#121317;stroke-width:1.5;stroke-linecap:round;stroke-linejoin:round;stroke-miterlimit:10;}
	.st5{fill:#A57C52;stroke:#121317;stroke-linecap:round;stroke-linejoin:round;stroke-miterlimit:10;}
	.st6{fill:#4976B5;stroke:#121317;stroke-linecap:round;stroke-linejoin:round;stroke-miterlimit:10;}
	.st7{fill:#CDD2DA;stroke:#121317;stroke-width:1.5;stroke-linecap:round;stroke-linejoin:round;stroke-miterlimit:10;}
	.st8{fill:#FBE790;stroke:#121317;stroke-width:1.5;stroke-linecap:round;stroke-linejoin:round;stroke-miterlimit:10;}
	.st9{fill:#DFDFDF;stroke:#121317;stroke-linecap:round;stroke-linejoin:round;stroke-miterlimit:10;}
	.st10{fill:none;stroke:#131418;stroke-width:1.5;stroke-linecap:round;stroke-linejoin:round;stroke-miterlimit:10;}
	.st11{fill:#FFDCC2;stroke:#121317;stroke-width:1.5;stroke-linecap:round;stroke-linejoin:round;stroke-miterlimit:10;}
	.st12{fill:#E5C178;stroke:#121317;stroke-width:1.5;stroke-linecap:round;stroke-linejoin:round;stroke-miterlimit:10;}
	.st13{fill:#D8E1EF;stroke:#121317;stroke-width:1.5;stroke-linecap:round;stroke-linejoin:round;stroke-miterlimit:10;}
	.st14{fill:#F1F3F6;stroke:#121317;stroke-width:1.5;stroke-linecap:round;stroke-linejoin:round;stroke-miterlimit:10;}
	.st15{fill:none;stroke:#121317;stroke-width:1.5;stroke-linecap:round;stroke-linejoin:round;stroke-miterlimit:10;}
	.st16{fill:#F2900D;stroke:#121317;stroke-width:1.5;stroke-linecap:round;stroke-linejoin:round;stroke-miterlimit:10;}
</style>
<path class="st0" d="M470.4,207c0,0,18,43.5-28.2,53.7s-11.9-47.1-11.9-47.1L470.4,207z"/>
<path class="st0" d="M355.2,207c0,0-18,43.5,28.2,53.7s11.9-47.1,11.9-47.1L355.2,207z"/>
<g>
	<g>
		<path class="st1" d="M463.6,367h-41.4l-9.1-117.7l0-0.2v0.2L404,367h-41.4c2.9-58.7,10.6-104.5,15.7-129.2h69.7
			C452.9,262.6,460.7,308.4,463.6,367z"/>
		<path class="st2" d="M362.6,367c0,0-2.3,10.7-6.4,20.3h42.1V367H362.6z"/>
		<path class="st2" d="M463.6,367c0,0,2.3,10.7,6.4,20.3h-42.1V367H463.6z"/>
		<g>
			<path class="st3" d="M428.8,156.6c18,7.7,36.3,28.2,47.1,50.4c0.1,0.3-26.5,21-26.5,21l-1.7-16.3l0.7,7.7l1.7,18.4h-74.5l1.7-18
				l2-21.4l-2.9,29.4L349.3,207c10.9-21.7,27.1-44,48.1-50.4"/>
			<path class="st3" d="M397.3,156.6c5.4-2.3,10.7-3.6,15.7-3.6c5.1,0,10.4,1.3,15.7,3.6"/>
		</g>
		<line class="st2" x1="446.6" y1="198.5" x2="450.3" y2="237.8"/>
	</g>
</g>
<path class="st4" d="M274.5,275.3l-24.9,5.7c-3-13-7.6-34.9-11.3-52.7l27.4-7.2C270.9,243.7,273.5,265,274.5,275.3z"/>
<path class="st5" d="M250.6,284.9c-0.3-1.2-0.6-2.5-0.9-3.9l24.9-5.7c0.4,4.1,0.6,6.5,0.6,6.5C277.7,303.2,255.3,305,250.6,284.9z"
	/>
<path class="st6" d="M160.3,367h41.4l9.1-117.7l0-0.2v0.2l9.1,117.7h41.5c-2.9-58.7-10.6-104.5-15.7-129.3H176
	C170.9,262.5,163.2,308.3,160.3,367z"/>
<path class="st4" d="M261.3,367c0,0,2.3,10.7,6.4,20.3h-42.1V367H261.3z"/>
<path class="st4" d="M160.3,367c0,0-2.3,10.7-6.4,20.3H196V367H160.3z"/>
<g>
	<path class="st6" d="M247.2,228.5l0.9,9.3h-74.5l2.1-26.2l-5.2,5.9l-5.8,6.6l-2.8-2.5l-21.1-19c16.1-19.2,36-38.2,54.2-46
		l15.8,13.3l15.7-13.3c18.2,7.8,32.2,29.5,44.1,63.8L247.2,228.5z"/>
	<path class="st4" d="M195.1,156.5l15.8,13.3l15.7-13.3c-5.4-2.3-10.7-3.6-15.7-3.6C205.7,152.9,200.4,154.2,195.1,156.5z"/>
</g>
<line class="st4" x1="244.3" y1="198.4" x2="248.1" y2="237.7"/>
<g>
	<g>
		<path class="st4" d="M210.4,152.8"/>
		<path class="st4" d="M161.2,220.9c-11.5,14-26.9,30.3-35.5,40.5l-19.5-16.5c5.7-8.7,19.7-24.7,34.6-42.4h0L161.2,220.9z"/>
		<path class="st5" d="M125.7,261.4c-0.9,1.1-1.8,2.2-2.6,3.1c-13.5,15.7-32.5,3.7-20.4-14.1c0,0,1.3-2,3.5-5.5L125.7,261.4z"/>
	</g>
</g>
<g>
	<line class="st4" x1="210.8" y1="167.5" x2="210.8" y2="179.9"/>
	
		<rect x="198.6" y="179.7" transform="matrix(-1 -4.539981e-11 4.539981e-11 -1 421.5944 374.5665)" class="st4" width="24.3" height="15.1"/>
	<rect x="201.7" y="183" transform="matrix(-1 -4.536650e-11 4.536650e-11 -1 409.933 374.5665)" width="6.5" height="8.6"/>
</g>
<g>
	<g>
		<path class="st7" d="M11.9,237.2c-2.6,0-4.7-2.1-4.7-4.7v-97.9c0-11.5,9.3-20.8,20.8-20.8c2.6,0,4.7,2.1,4.7,4.7
			c0,2.6-2.1,4.7-4.7,4.7c-6.3,0-11.4,5.1-11.4,11.4v97.9C16.6,235.1,14.5,237.2,11.9,237.2z"/>
	</g>
	<g>
		<path class="st7" d="M97.3,237.2c-2.6,0-4.7-2.1-4.7-4.7v-97.9c0-6.3-5.1-11.4-11.4-11.4c-2.6,0-4.7-2.1-4.7-4.7
			c0-2.6,2.1-4.7,4.7-4.7c11.5,0,20.8,9.3,20.8,20.8v97.9C102,235.1,99.9,237.2,97.3,237.2z"/>
	</g>
	<circle class="st4" cx="28" cy="118.4" r="9.6"/>
	<circle class="st4" cx="81.2" cy="118.4" r="9.6"/>
</g>
<g>
	<path class="st8" d="M541.5,275.1v49c0,27.7-14.4,52.1-36.1,66.2c-0.3,0.2-0.7,0.4-1,0.6c-0.3,0.2-0.5,0.3-0.8,0.5
		c-8.8,5-23.2,11.4-45.6,11.4c-10.3,0-8.2,0-8.5,0H129.7c-44.1,0-80.3-34.7-82.8-78.2h-0.4c-24.9-3.9-44-25.5-44-51.5v-40.8
		c0-5.2,4.2-9.4,9.4-9.4c5.2,0,9.4,4.2,9.4,9.4v40.8c0,18.4,15,33.3,33.3,33.3c18.4,0,33.3-15,33.3-33.3v-40.8
		c0-5.2,4.2-9.4,9.4-9.4c5.2,0,9.4,4.2,9.4,9.4v40.8c0,26-19.1,47.6-44,51.5h-0.1c2.4,34.9,31.6,62.5,67.1,62.5h335
		c33.9-1.1,61.1-29,61.1-63.2v-49c0-34.8-28.4-63.2-63.2-63.2h-34.3c-4.3,0-7.8-3.5-7.8-7.8s3.5-7.8,7.8-7.8h34.3
		C506.1,196.3,541.5,231.7,541.5,275.1z"/>
</g>
<g>
	<circle class="st7" cx="423.3" cy="204" r="30.6"/>
	<circle class="st7" cx="423.3" cy="204" r="17.6"/>
</g>
<g>
	<line class="st4" x1="494.9" y1="80.4" x2="494.9" y2="147.1"/>
	<line class="st4" x1="528.3" y1="113.7" x2="461.6" y2="113.7"/>
	<path class="st4" d="M519.4,113.7c-13.5,0-24.4,10.9-24.4,24.4c0-13.5-10.9-24.4-24.4-24.4c13.5,0,24.4-10.9,24.4-24.4
		C494.9,102.8,505.9,113.7,519.4,113.7z"/>
</g>
<g>
	<path class="st5" d="M194.3,141.1c2.3,6.8,8.8,11.7,16.4,11.7c9.6,0,17.4-7.8,17.4-17.3c0-4.9-2-9.3-5.3-12.5
		c-0.9,1.1-1.9,1.6-2.9,1.9c0,0,0,0,0,0c-0.3,0.1-0.6,0.1-1,0.2c-0.3,0-0.6,0-1,0c-0.5,0-0.9,0-1.4,0c-0.9,0-1.7-0.1-2.5,0
		c-0.4,0.1-0.8,0.2-1.2,0.4c-0.4,0.2-0.7,0.4-1.1,0.8c-0.3,0.4-0.7,0.8-1,1.3c-3.4,6.2-7.2-0.1-9.5,7.2c-0.3,1-0.7,1.9-1.1,2.6
		C197.7,141.9,194.3,141.1,194.3,141.1z"/>
	<path class="st2" d="M214,125.2c0.8-0.1,1.7-0.1,2.5,0C215.6,125,214.8,125,214,125.2z"/>
	<path class="st9" d="M194.3,141.1c0,0,3.4,0.7,5.8-3.7c0.4-0.7,0.7-1.6,1.1-2.6c2.3-7.3,6.1-1,9.5-7.2c0.3-0.5,0.6-1,1-1.3
		c0.4-0.3,0.7-0.6,1.1-0.8c0.4-0.2,0.8-0.3,1.2-0.4c0.8-0.2,1.7-0.1,2.5,0c0.5,0,0.9,0,1.4,0c0.3,0,0.7,0,1,0c0.3,0,0.6-0.1,1-0.2
		c0,0,0,0,0,0c1-0.2,2-0.8,2.9-1.9c0.6-0.7,1.2-1.6,1.7-2.8c2.2-4.8-2.8,0.1-9.3-1.5h-0.1c0,0-0.1,0-0.1,0
		c-9.8-2.5-20.1,4.2-21.5,14.3C193.1,135.8,193.4,138.6,194.3,141.1z"/>
	<path class="st2" d="M219.8,125c-0.3,0.1-0.6,0.1-1,0.2C219.2,125.1,219.5,125,219.8,125L219.8,125z"/>
	<path class="st2" d="M214,125.2c0.8-0.1,1.7-0.1,2.5,0C215.6,125,214.8,125,214,125.2z"/>
	<g>
		<path class="st10" d="M219.1,141.2c0,0,1.6,2.9,6.4,2.9"/>
	</g>
	<path class="st10" d="M215.1,118.8C215.2,118.8,215.2,118.8,215.1,118.8"/>
</g>
<rect x="208.2" y="167.5" class="st4" width="5.3" height="5.3"/>
<g>
	<line class="st10" x1="396.2" y1="128.4" x2="396.2" y2="128.4"/>
	<path class="st11" d="M414,146.3c0,0.3-0.1,0.6-0.1,0.9c-0.1,1.9,0.3,3.6,1.2,5.1c-1,0.2-2,0.3-3.1,0.3c-9.6,0-17.3-7.8-17.3-17.3
		c0-6.9,4-12.8,9.8-15.6c-0.2,0.6-3.9,9.8,3.9,11.2c0,0,0,0,0.1,0c2.5,0.4,4.3,2.4,4.8,4.9c0.4,1.9,1.4,4,3.3,5.6
		c-0.2,0.2-0.4,0.4-0.5,0.6c-0.4,0.4-0.7,0.8-1,1.3c-0.2,0.2-0.3,0.5-0.4,0.7c-0.1,0.2-0.1,0.3-0.2,0.5c-0.1,0.2-0.1,0.3-0.2,0.5
		c-0.1,0.2-0.1,0.4-0.2,0.6C414.1,145.8,414.1,146,414,146.3z"/>
	<path class="st12" d="M442,142.1c-0.3,5-4.6,8.7-9.5,8.4c-0.3,0-0.7-0.1-1-0.1c-1.2,3.9-4.9,6.6-9.1,6.3c-3.1-0.2-5.7-1.9-7.2-4.4
		c-0.9-1.5-1.3-3.3-1.2-5.1c0-0.3,0-0.6,0.1-0.9c0-0.2,0.1-0.5,0.2-0.7c0-0.2,0.1-0.4,0.2-0.6c0-0.2,0.1-0.4,0.2-0.5
		c0.1-0.2,0.1-0.3,0.2-0.5c0.1-0.2,0.2-0.5,0.4-0.7c0.3-0.5,0.6-0.9,1-1.3c0.2-0.2,0.3-0.4,0.5-0.6c-1.9-1.6-2.9-3.6-3.3-5.6
		c-0.5-2.4-2.3-4.4-4.8-4.9c0,0,0,0-0.1,0c-7.8-1.4-4.1-10.6-3.9-11.2c0,0,0,0,0,0c2.3-1.1,4.8-1.7,7.5-1.7c5.2,0,9.8,2.3,13,5.9
		c2.1-2,5.2-2.9,8.4-2.2c4,1,6.9,4.8,6.8,8.9c0,1.6-0.5,3-1.2,4.2C441,136.6,442.1,139.2,442,142.1z"/>
	<path class="st10" d="M403.3,140.5c0,0-1.6,2.9-6.4,2.9"/>
</g>
<g>
	<rect x="262.5" y="6.2" class="st4" width="101.9" height="136.7"/>
	<rect x="272.2" y="36.9" class="st13" width="27.5" height="12.2"/>
	<rect x="299.7" y="36.9" class="st14" width="27.5" height="12.2"/>
	<rect x="327.2" y="36.9" class="st13" width="27.5" height="12.2"/>
	<rect x="272.2" y="49.1" class="st14" width="27.5" height="12.2"/>
	<rect x="299.7" y="49.1" class="st13" width="27.5" height="12.2"/>
	<rect x="327.2" y="49.1" class="st14" width="27.5" height="12.2"/>
	<rect x="272.2" y="61.2" class="st13" width="27.5" height="12.2"/>
	<rect x="299.7" y="61.2" class="st14" width="27.5" height="12.2"/>
	<rect x="327.2" y="61.2" class="st13" width="27.5" height="12.2"/>
	<rect x="272.2" y="73.4" class="st14" width="27.5" height="12.2"/>
	<rect x="299.7" y="73.4" class="st13" width="27.5" height="12.2"/>
	<rect x="327.2" y="73.4" class="st14" width="27.5" height="12.2"/>
	<rect x="272.2" y="85.6" class="st13" width="27.5" height="12.2"/>
	<rect x="299.7" y="85.6" class="st14" width="27.5" height="12.2"/>
	<rect x="327.2" y="85.6" class="st13" width="27.5" height="12.2"/>
	<rect x="272.2" y="97.8" class="st14" width="27.5" height="12.2"/>
	<rect x="299.7" y="97.8" class="st13" width="27.5" height="12.2"/>
	<rect x="327.2" y="97.8" class="st14" width="27.5" height="12.2"/>
	<rect x="272.2" y="110" class="st13" width="27.5" height="12.2"/>
	<rect x="299.7" y="110" class="st14" width="27.5" height="12.2"/>
	<rect x="327.2" y="110" class="st13" width="27.5" height="12.2"/>
	<rect x="272.2" y="122.2" class="st14" width="27.5" height="12.2"/>
	<rect x="299.7" y="122.2" class="st13" width="27.5" height="12.2"/>
	<rect x="327.2" y="122.2" class="st14" width="27.5" height="12.2"/>
	<line class="st15" x1="272.2" y1="21.6" x2="299.7" y2="21.6"/>
	<line class="st15" x1="272.2" y1="25.3" x2="299.7" y2="25.3"/>
	<line class="st15" x1="272.2" y1="18" x2="299.7" y2="18"/>
	<line class="st15" x1="272.2" y1="14.4" x2="299.7" y2="14.4"/>
	<circle class="st16" cx="345.2" cy="23.7" r="9.5"/>
	<polygon class="st4" points="351.1,21.5 351.1,25.9 347.4,25.9 347.4,29.6 343,29.6 343,25.9 339.3,25.9 339.3,21.5 343,21.5 
		343,17.8 347.4,17.8 347.4,21.5 	"/>
</g>
</svg>
