<?xml version="1.0" encoding="utf-8"?>
<!-- Generator: Adobe Illustrator 28.2.0, SVG Export Plug-In . SVG Version: 6.00 Build 0)  -->
<svg version="1.1" id="Layer_1" xmlns="http://www.w3.org/2000/svg" xmlns:xlink="http://www.w3.org/1999/xlink" x="0px" y="0px"
	 viewBox="0 0 545 408" style="enable-background:new 0 0 545 408;" xml:space="preserve">
<style type="text/css">
	.st0{fill:#866D99;stroke:#121317;stroke-width:1.5;stroke-linecap:round;stroke-linejoin:round;stroke-miterlimit:10;}
	.st1{fill:#F2F4F7;stroke:#121317;stroke-width:1.5;stroke-linecap:round;stroke-linejoin:round;stroke-miterlimit:10;}
	.st2{fill:#EEF0F2;stroke:#131418;stroke-width:1.5;stroke-linecap:round;stroke-linejoin:round;stroke-miterlimit:10;}
	.st3{fill:#D0D5DD;stroke:#121317;stroke-width:1.5;stroke-linecap:round;stroke-linejoin:round;stroke-miterlimit:10;}
	.st4{fill:#FFFFFF;stroke:#121317;stroke-width:1.5;stroke-linecap:round;stroke-linejoin:round;stroke-miterlimit:10;}
	.st5{fill:none;stroke:#121317;stroke-width:1.5;stroke-linecap:round;stroke-linejoin:round;stroke-miterlimit:10;}
	.st6{fill:#949494;stroke:#121317;stroke-width:1.5;stroke-linecap:round;stroke-linejoin:round;stroke-miterlimit:10;}
	.st7{fill:#121317;stroke:#121317;stroke-width:1.5;stroke-linecap:round;stroke-linejoin:round;stroke-miterlimit:10;}
	.st8{fill:#F3910D;stroke:#121317;stroke-width:1.5;stroke-linecap:round;stroke-linejoin:round;stroke-miterlimit:10;}
	.st9{fill:#FFEFCB;stroke:#121317;stroke-width:1.5;stroke-linecap:round;stroke-linejoin:round;stroke-miterlimit:10;}
	.st10{fill:#BC5353;stroke:#121317;stroke-width:1.5;stroke-linecap:round;stroke-linejoin:round;stroke-miterlimit:10;}
	.st11{fill:#A67C52;stroke:#121317;stroke-width:1.5;stroke-linecap:round;stroke-linejoin:round;stroke-miterlimit:10;}
	.st12{fill:#E6C278;stroke:#121317;stroke-width:1.5;stroke-linecap:round;stroke-linejoin:round;stroke-miterlimit:10;}
	.st13{fill:#72C1A5;stroke:#121317;stroke-width:1.5;stroke-linecap:round;stroke-linejoin:round;stroke-miterlimit:10;}
	.st14{fill:#FFDDC3;stroke:#121317;stroke-width:1.5;stroke-linecap:round;stroke-linejoin:round;stroke-miterlimit:10;}
	.st15{fill:#FCDDAC;stroke:#121317;stroke-width:1.5;stroke-linecap:round;stroke-linejoin:round;stroke-miterlimit:10;}
	.st16{fill:#FFF8ED;stroke:#121317;stroke-width:1.5;stroke-linecap:round;stroke-linejoin:round;stroke-miterlimit:10;}
	.st17{fill:#D3E5BE;stroke:#121317;stroke-width:1.5;stroke-linecap:round;stroke-linejoin:round;stroke-miterlimit:10;}
	.st18{fill:#FFFFFF;stroke:#000000;stroke-width:1.5;stroke-linecap:round;stroke-linejoin:round;stroke-miterlimit:10;}
</style>
<g>
	<path class="st0" d="M339.06,284.29c0.53,0.28,1.06,0.48,1.62,0.61H232.34c-4.12,0-7.49-3.34-7.49-7.49v-10.65
		c0-4.12,3.36-7.49,7.49-7.49h109.61c-4.12,0-7.49,3.36-7.49,7.49v10.65c0,0.23,0,0.43,0.03,0.66c0.25,2.76,1.97,5.08,4.4,6.15
		C338.93,284.27,339.01,284.29,339.06,284.29z"/>
	<rect x="232.7" y="284.89" class="st1" width="113" height="119.69"/>
	<rect x="345.7" y="284.89" class="st2" width="178.47" height="119.69"/>
	<rect x="232.7" y="390.38" class="st3" width="113" height="14.19"/>
	<rect x="345.7" y="390.38" class="st3" width="178.47" height="14.19"/>
	<g>
		<path class="st0" d="M354.43,259.28"/>
	</g>
	<path class="st0" d="M332.13,259.28"/>
	<path class="st0" d="M494.38,150.15c0,0.94-0.13,1.87-0.4,2.78l-34.82,118.74c-2.3,7.84-9.49,13.23-17.66,13.23h-99.54
		c-0.63,0-1.24-0.08-1.8-0.23c-0.38-0.1-0.73-0.2-1.09-0.38c-0.05,0-0.13-0.02-0.18-0.08c-0.29-0.15-0.56-0.32-0.83-0.51
		c-1.57-0.95-2.72-2.44-3.25-4.24c-0.15-0.45-0.27-0.92-0.32-1.4c-0.03-0.23-0.03-0.43-0.03-0.66v-10.65c0-4.12,3.37-7.49,7.49-7.49
		h100.42l32.81-111.86c1.32-4.48,5.34-7.03,9.46-7.03c2.48,0,4.98,0.94,6.96,2.96C493.41,145.19,494.38,147.64,494.38,150.15z"/>
	<path class="st0" d="M484.64,140.38c-4.12,0-8.15,2.55-9.46,7.03l-32.81,111.86H332.76l32.83-111.86c1.32-4.5,5.36-7.06,9.51-7.03
		H484.64z"/>
	<path class="st4" d="M464.98,140.38c-4.12,0-8.15,2.55-9.46,7.03l-32.81,111.86h-72.43l32.83-111.86c1.32-4.5,5.36-7.06,9.51-7.03
		H464.98z"/>
	<g>
		<rect x="420.94" y="297.21" class="st5" width="95.09" height="19.71"/>
	</g>
	<g>
		<rect x="420.94" y="328.39" class="st1" width="95.09" height="19.71"/>
	</g>
	<g>
		<rect x="420.94" y="359.57" class="st1" width="95.09" height="19.68"/>
	</g>
	<g>
		<rect x="301.83" y="362.55" class="st1" width="43.87" height="27.83"/>
		<rect x="301.83" y="390.38" class="st3" width="43.87" height="14.19"/>
		<rect x="301.83" y="354.73" class="st6" width="43.87" height="11.42"/>
	</g>
	<g>
		<rect x="204.27" y="362.55" class="st1" width="113" height="27.83"/>
		<rect x="204.27" y="390.38" class="st3" width="113" height="14.19"/>
		<rect x="204.27" y="354.73" class="st6" width="113" height="11.42"/>
	</g>
</g>
<g>
	<path class="st6" d="M55.06,332.6h77.54c1.8,0,3.25-1.46,3.25-3.25v-15.82c0-1.8-1.46-3.25-3.25-3.25H55.06
		c-1.8,0-3.25,1.46-3.25,3.25v15.82C51.81,331.15,53.26,332.6,55.06,332.6z"/>
	
		<rect x="89.86" y="332.6" transform="matrix(-1 -4.399160e-11 4.399160e-11 -1 187.6649 705.4417)" class="st7" width="7.94" height="40.23"/>
	<path class="st6" d="M88.23,354.7h11.2c0.73,0,1.32,0.59,1.32,1.32v28.54H86.91v-28.54C86.91,355.29,87.5,354.7,88.23,354.7z"/>
	<path class="st6" d="M58.91,388.86v-3.48c0-1.19,0.96-2.15,2.15-2.15h65.55c1.19,0,2.15,0.96,2.15,2.15v3.48H58.91z"/>
	<circle class="st7" cx="93.76" cy="396.73" r="7.85"/>
	<circle class="st7" cx="128.76" cy="396.7" r="7.85"/>
	<circle class="st7" cx="58.91" cy="396.7" r="7.85"/>
</g>
<g>
	<g>
		<path class="st8" d="M317.19,259.14l-7.83-0.03c-4.16-0.01-7.54,3.37-7.54,7.53v65.31h-53.86c0-48.39,3.07-73.29,5.6-85.59
			c2.3-11.18,10.62-20.25,21.62-23.32c16.48-4.59,23.01-3.43,71.88-3.43v16.1c0,13.68-11.09,23.43-24.77,23.43H317.19z"/>
		<path class="st4" d="M261.69,331.94c0,0-2.59,12.04-7.24,22.79h47.37v-22.79H261.69z"/>
		<path class="st8" d="M336.96,259.14l-7.83-0.03c-4.16-0.01-7.54,3.37-7.54,7.53v65.31h-53.86c0-48.39,3.07-73.29,5.6-85.59
			c2.3-11.18,10.62-20.25,21.62-23.32c16.48-4.59,23.01-3.43,71.88-3.43v16.1c0,13.68-11.09,23.43-24.77,23.43H336.96z"/>
		<g>
			<g>
				<path class="st9" d="M336.79,145.4"/>
			</g>
		</g>
		<path class="st10" d="M345.12,211.18l5.53,28.9l-35.55-20.22c0,0,1.42-67.78,18.71-73.72c16.75-6.73,30.14,27.1,37.65,58.35
			L345.12,211.18z"/>
		<line class="st4" x1="331.22" y1="185.14" x2="338.43" y2="212.87"/>
		<path class="st4" d="M281.46,331.94c0,0-2.59,12.04-7.24,22.79h47.37v-22.79H281.46z"/>
		<path class="st11" d="M371.46,204.49c0,0,9.85,36.43-11.68,41.91c-21.53,5.48-63.32-8.57-76.44-13.9
			c-13.12-5.33-8.67-25.99,12.21-20.45c20.88,5.54,51.1,9.53,51.1,9.53l-1.53-10.4L371.46,204.49z"/>
		<line class="st4" x1="338.43" y1="212.87" x2="353.95" y2="208.94"/>
	</g>
	<g>
		<path class="st11" d="M348.19,133.91c-2.39,6.09-7.78,10.82-14.71,12.02c-10.54,1.82-20.55-5.25-22.37-15.8
			c-1.53-8.87,3.23-17.4,11.11-20.94l5.36,23.28L348.19,133.91z"/>
		<circle class="st12" cx="359.02" cy="131.73" r="9.64"/>
		<circle class="st12" cx="377.08" cy="138.39" r="9.64"/>
		<circle class="st12" cx="395.13" cy="145.05" r="9.64"/>
		<path class="st12" d="M349.25,123.53c0.63,3.64,0.19,7.21-1.06,10.37l-20.61-1.44l-5.36-23.28c1.45-0.66,3.01-1.14,4.66-1.42
			C337.43,105.94,347.43,113.02,349.25,123.53z"/>
		<path class="st5" d="M320.97,133.12c0,0-1.22,3.49-6.46,4.4"/>
	</g>
	<circle class="st11" cx="310.83" cy="210.9" r="12.03"/>
</g>
<path class="st13" d="M109.78,310.32l18.53-0.03c4.16-0.01,7.54,3.37,7.54,7.53v63.97h53.86c0-48.39-3.07-73.29-5.6-85.59
	c-2.3-11.18-10.62-20.25-21.62-23.32c-16.48-4.59-43.51-3.43-92.38-3.43v16.1c0,13.68,11.09,24.77,24.77,24.77H109.78z"/>
<path class="st4" d="M182.48,381.78c0,0,2.59,12.04,7.24,22.79h-47.37v-22.79H182.48z"/>
<path class="st4" d="M95.82,195.24c-22.42-3.51-48.7,115.08-7.01,115.08h39.8c4,0,7.25,3.25,7.25,7.25v24.56h30.18
	c0,0,2.65-52.3-23.47-66.48c-30.74-16.69-30.07-65.98-39.99-76.45C102.58,199.2,99.82,195.86,95.82,195.24z"/>
<path class="st4" d="M102.58,199.2c7.83,8.58,11.92,40.04,34.02,54.69c14.66,9.71,32.39,12.93,32.39,12.93l-16.44,31.31
	c0,0-58.72-8.36-68.13-58.58"/>
<line class="st4" x1="157.05" y1="263.58" x2="140.43" y2="295.22"/>
<path class="st14" d="M169,266.82c0,0,19.87,5.28,15.27,17.85s-25.78,2.17-25.78,2.17L169,266.82z"/>
<g>
	<rect x="100.76" y="9.47" class="st15" width="154.7" height="120.61"/>
	<path class="st16" d="M245.19,20.12v22.96c-12.46,0-21.56,4.9-27.83,10.36h-0.02c-21.44-11.32-32.07,7.76-40.64,0.45
		c-7.19-6.15-20.15-13.26-39.44-3.82c-19.28,9.43-26.27,2.04-26.27,2.04V20.12H245.19z"/>
	<path class="st17" d="M217.35,53.44c-7.76,6.74-11.14,14.27-11.14,14.27c-42.66-2.87-45.54,41.84-59.49,21.32
		c-13.95-20.5-35.71-16.41-35.71-16.41V52.11c0,0,6.98,7.39,26.27-2.04c19.28-9.44,32.24-2.33,39.44,3.82
		C185.29,61.2,195.92,42.12,217.35,53.44z"/>
	<line class="st18" x1="100.76" y1="9.47" x2="111.01" y2="20.13"/>
	<line class="st18" x1="111.01" y1="119.41" x2="100.76" y2="130.07"/>
	<line class="st18" x1="245.2" y1="119.41" x2="255.46" y2="130.07"/>
	<line class="st18" x1="245.2" y1="20.13" x2="255.46" y2="9.47"/>
	<path class="st17" d="M245.19,43.09v76.33H111.01V72.63c0,0,21.76-4.09,35.71,16.41c13.95,20.52,16.83-24.2,59.49-21.32
		c0,0,3.39-7.53,11.14-14.27h0.02C223.63,47.98,232.73,43.09,245.19,43.09z"/>
</g>
<path class="st4" d="M421.41,84.71c-8.59,2-15.35,8.76-17.34,17.34c-2-8.59-8.76-15.35-17.34-17.34c8.59-2,15.35-8.76,17.34-17.34
	C406.06,75.96,412.82,82.72,421.41,84.71z"/>
<path class="st4" d="M466.34,43.15c-15.65,0-28.35,12.7-28.35,28.35c0-15.65-12.7-28.35-28.35-28.35c15.65,0,28.35-12.7,28.35-28.35
	C437.99,30.45,450.69,43.15,466.34,43.15z"/>
<g>
	<path class="st7" d="M74.64,178.39c0.17,1.3,0.47,2.57,0.91,3.76c7.96,2.29,11.42-3.96,12.9-8.62c0.77-2.5,0.98-4.54,0.98-4.54
		l17.21-7.63c-4.02-3.6-9.55-5.48-15.35-4.71C80.68,158.05,73.24,167.78,74.64,178.39z"/>
	<path class="st14" d="M96.37,195.05c10.61-1.4,18.05-11.14,16.65-21.72c-0.63-4.79-3-8.97-6.35-11.97l-0.03,0l-17.21,7.63
		c0,0-0.21,2.04-0.98,4.54c-1.48,4.66-4.94,10.91-12.9,8.62C78.46,190.67,87.06,196.28,96.37,195.05"/>
	<path class="st14" d="M112.68,171.42"/>
	<path class="st14" d="M104.09,178.71c0,0,2.21,2.97,7.48,2.27"/>
</g>
</svg>
