<?xml version="1.0" encoding="UTF-8"?>
<svg id="atlantic_health_system_a" data-name="atlantic health system a" xmlns="http://www.w3.org/2000/svg" version="1.1" viewBox="0 0 280.3 81.7">
  <defs>
    <style>
      .cls-1 {
        fill: #004280;
      }

      .cls-1, .cls-2, .cls-3 {
        stroke-width: 0px;
      }

      .cls-2 {
        fill: #f8971d;
      }

      .cls-3 {
        fill: #fcb562;
      }
    </style>
  </defs>
  <polygon class="cls-3" points=".7 81.7 61.2 2.5 20.4 2.5 .3 81.7 .7 81.7"/>
  <polygon class="cls-2" points=".3 81.7 20.4 2.5 0 2.5 0 81.7 .3 81.7"/>
  <polygon class="cls-2" points="61.4 2.5 61.2 2.5 .7 81.7 1.4 81.7 61.4 49.1 61.4 2.5 61.4 2.5"/>
  <polygon class="cls-1" points="1.4 81.7 61.4 81.7 61.4 49.1 1.4 81.7"/>
  <path class="cls-1" d="M87.7,22.2h0c.7-2.6,1.6-5.2,2.7-7.6v-.2h7.6v.3c1.3,2.4,2.2,5,3,7.5h0c.6-.1,1.3-.2,1.9-.2.6,0,1.2,0,1.8.2h.1c0-.2-6.7-14.7-9-21.1h0c-.2,0-.4,0-.6,0-.2,0-.3,0-.5,0h-.2c-1.6,4-4.8,11.3-9.2,21h0c0,0,0,0,0,0h.3c.3-.1.7-.2,1-.2.3,0,.6,0,.9.1h.3c0,0-.1,0-.1,0ZM91.2,12.8l3.1-7.3,3.2,7.3h-6.2Z"/>
  <path class="cls-1" d="M105.8,8c0,.2,0,.4,0,.7,0,.2,0,.5,0,.7h0c0,0,0,0,0,0h.6c.7,0,1,0,1.7,0v4.7c0,2.8,0,3.4,0,3.8,0,1.9.2,2.4.4,2.8.7,1.2,1.9,1.9,3.2,1.8.9,0,1.8-.2,2.6-.6h0c0-.3,0-.6,0-.8h0c0,0,0,0,0,0h-.2c-.4,0-.8.1-1.2.2-1.7,0-2-1.4-2-3.7s0-5.8.1-8.2c1.1,0,2.2,0,2.9,0h.4c0-.3,0-.6,0-.8,0-.2,0-.4,0-.6v-.2h0c-1.1.1-2.2.1-3.2.1v-.4c0-1.5,0-1.9.2-4.2h0c0,0,0,0,0,0-1,.6-2,1-3,1.4h0c0,1.5,0,2.2,0,3.3-.6,0-1,0-1.4,0h-1c0,0,0,0,0,0h0c0,.1,0,.2,0,.2Z"/>
  <path class="cls-1" d="M117.9,10.2v.4c0,7.7,0,8.5-.2,11.5h0c0,0,0,0,0,0,.5-.2,1-.2,1.5-.2.5,0,1.1,0,1.6.2h0c-.2-4.1-.2-6.1-.2-10.9s0-6.9.2-11.1v-.2h-.1c-.5.1-1,.2-1.5.2-.5,0-1,0-1.5-.2h-.1c.2,3,.2,3.8.2,10.2Z"/>
  <path class="cls-1" d="M128.8,22.6c1.7,0,3.4-.7,4.5-2.1.2,1.1,1.2,1.9,2.3,1.9.8,0,1.5-.3,2.2-.7h0v-.8h0c0,0,0,0,0,0-.2.1-.5.2-.7.1-1.1,0-1.1-.8-1.1-3.5s0-1.4,0-2.6,0-2.4,0-2.8c.1-1.3-.3-2.5-1.2-3.4-1.1-.9-2.6-1.4-4.1-1.4-1.8,0-3.5.6-4.9,1.8v2c-.1,0-.1,0-.1,0h.9c.5-1.4,1.9-2.3,3.4-2.2,1.7-.1,3.2,1.1,3.3,2.8,0,.1,0,.3,0,.4.1.6-.3,1.3-1,1.4,0,0,0,0-.1,0l-2.6.6c-2.5.6-5,1.1-5,4.3,0,2.2,1.7,4,3.9,4,0,0,.2,0,.3,0ZM133.3,14.8v3.2c-.1,1.6-1.5,2.8-3.1,2.8-1.3,0-2.4-.9-2.5-2.2,0,0,0-.2,0-.3,0-1.5.4-2.8,5.6-3.6h0Z"/>
  <path class="cls-1" d="M142.5,22.1c.5,0,1.1,0,1.6.2h0v-.4c0-1.1-.2-2.5-.2-4.6s0-4.8.5-5.8c.7-1.3,2.1-2.1,3.5-2,3.2,0,3.4,2.5,3.4,5.8s0,4.1-.3,7h0c0,0,0,0,0,0,.5-.1,1-.2,1.6-.2.5,0,1,0,1.5.2h0c0-.5,0-2.6,0-3.2s0-3,0-4.7v-1.7c0-1.3,0-5.3-5.2-5.3-2.1,0-4.1,1-5.2,2.8,0-.3,0-.7,0-1.2,0-.6,0-1.2,0-1.5h0c0,0,0,0,0,0h-.2c-.4,0-.8.1-1.2.1-.4,0-.8,0-1.2-.1h-.3c0,0,0,1.5,0,1.5,0,1.7.1,3.4.1,5,0,4.6-.2,6.5-.3,8.2h0c0,0,0,0,0,0,.5-.1,1-.2,1.5-.2Z"/>
  <path class="cls-1" d="M157.5,9.4h.7c.7,0,1,0,1.7,0v4.7c0,2.8,0,3.4,0,3.8,0,1.9.2,2.4.4,2.8.7,1.2,1.9,1.9,3.2,1.8.9,0,1.8-.2,2.6-.6h0c0-.3,0-.6,0-.8h0c0,0,0,0,0,0h-.2c-.4,0-1,.2-1.2.2-1.7,0-2-1.4-2-3.7,0-3.3,0-5.8.1-8.2,1.1,0,2.2,0,2.9,0h.4c0-.3,0-.5,0-.8,0-.2,0-.4,0-.6v-.2h0c-1.1.1-2.2.1-3.2.1v-.4c0-1.6,0-2,.2-4.2h0c0,0,0,0,0,0-.9.6-1.9,1-3,1.4h0c0,1.5,0,2.2,0,3.3-.6,0-1,0-1.4,0h-1c0,0,0,0,0,0h0c0,.3,0,.6,0,.8,0,.2,0,.5,0,.7h0Z"/>
  <path class="cls-1" d="M169.4,22.3h0c.5-.1,1-.2,1.5-.2.5,0,1,0,1.5.2h0c0,0,0-2,0-2-.1-3-.1-3.5-.1-4.7,0-4.6,0-6.1.2-7.6v-.3h0c-.5.1-1,.2-1.5.2-.5,0-1,0-1.5-.2h0c.1,1.7.2,3.6.2,7s0,5.2-.2,7.6h0Z"/>
  <path class="cls-1" d="M171,4.4c.9,0,1.7-.7,1.7-1.7,0-.9-.7-1.7-1.7-1.7-.9,0-1.7.7-1.7,1.7,0,0,0,0,0,0,0,.9.8,1.7,1.7,1.7Z"/>
  <path class="cls-1" d="M184.5,22.6c1.6,0,3.1-.4,4.5-1.2h0c0-.6.1-1.2.3-1.8h-.3c-1.1.9-2.5,1.5-4,1.5-1.2,0-5.2-.5-5.2-6.4s1.8-6.1,5-6.1c1.6-.1,3.1.9,3.6,2.5h.4c.1-1,.3-1.8.6-2.6h0c-1.5-.8-3.3-1.3-5-1.2-4.9,0-8,2.9-8,7.7,0,3.6,2.1,7.5,8,7.5Z"/>
  <path class="cls-1" d="M102.5,31.4h0v.6c.1,3.7.2,4.3.1,8.2-1.7,0-3.1,0-5.5,0s-4.1,0-5.9-.1c0-3.4.1-7.7.2-8.7h0c0,0,0,0,0,0-1.1.2-2.2.2-3.3,0h0v.7c.2,6.2.2,7,.2,9.2,0,3.9,0,5.5-.4,10.9h0c0,0,0,0,0,0,.6-.1,1.1-.2,1.7-.2.5,0,1.1,0,1.6.2h0c0-2.3,0-3.1,0-5.8v-4.4c2.2,0,2.9,0,5.7,0s3.7,0,5.7,0v4.5c0,.7-.1,3.9-.2,5.7h0c0,0,0,0,0,0,.6-.1,1.1-.2,1.7-.2.4,0,.9,0,1.3.1h.3c-.1-3.1-.2-4.1-.2-6.4,0-3.5,0-8.9.3-14.4h0c0,0,0,0,0,0-1.1.2-2.2.2-3.3,0h0Z"/>
  <path class="cls-1" d="M110,45.1c0,4.6,2.8,7.5,7.4,7.5,2.1.1,4.1-.6,5.6-2v-.2c0-.5,0-1.1.2-1.6h0s0,0,0,0h-.4c-1.1,1.5-2.8,2.4-4.7,2.3-1.7,0-3.3-.8-4.1-2.3-.6-1.2-.9-2.5-.8-3.9h10.8c0-1.1,0-4-1.8-5.8-1.3-1.2-3.1-1.8-4.9-1.7-5.4,0-7.3,4-7.3,7.7ZM113.1,43.6c.2-2.2,1.1-4.9,4.1-4.9s3.5.9,3.5,4.9h-7.6Z"/>
  <path class="cls-1" d="M137.7,45c0-1.2,0-2.4,0-2.8.1-1.3-.3-2.5-1.2-3.4-1.1-.9-2.6-1.4-4.1-1.4-1.8,0-3.5.6-4.9,1.8v2h-.1.9c.5-1.4,1.9-2.3,3.4-2.2,1.7-.1,3.2,1.1,3.3,2.8,0,.1,0,.3,0,.4.1.6-.3,1.3-1,1.4,0,0,0,0-.1,0l-2.6.6c-2.5.5-5,1.1-5,4.3,0,2.2,1.7,4,3.9,4,.1,0,.2,0,.3,0,1.7,0,3.4-.7,4.5-2,.2,1.1,1.2,1.9,2.3,1.9.8,0,1.5-.3,2.2-.7h0v-.8h0c0,0,0,0,0,0-.2.1-.5.2-.7.1-1.1,0-1.1-.8-1.1-3.5,0-.3,0-1.4,0-2.5ZM135,44.7v3.2c-.1,1.6-1.5,2.8-3.1,2.8-1.3,0-2.4-.9-2.5-2.2,0,0,0-.2,0-.3,0-1.5.4-2.8,5.6-3.6Z"/>
  <path class="cls-1" d="M142.7,52.3h0c.5-.2,1-.2,1.5-.2.5,0,1.1,0,1.6.2h0c-.2-4.1-.2-6.1-.2-11s0-6.9.2-11.1v-.2h-.1c-.5.1-1,.2-1.5.2-.5,0-1,0-1.5-.2h-.1c.2,3,.2,3.8.2,10.2v.4c0,7.7,0,8.5-.2,11.5h0Z"/>
  <path class="cls-1" d="M151.5,34.7h0c0,1.5,0,2.2,0,3.3-.6,0-1,0-1.4,0h-1c0,0,0,0,0,0h0c0,.3,0,.6,0,.8,0,.2,0,.5,0,.7h0c0,0,0,0,0,0h.6c.7,0,1-.1,1.7-.1v4.7c0,2.8,0,3.4,0,3.8,0,1.9.2,2.4.4,2.8.7,1.2,1.9,1.9,3.2,1.8.9,0,1.8-.2,2.6-.6h0c0-.3,0-.5,0-.8h0c0,0,0,0,0,0h-.2c-.4,0-1,.2-1.2.2-1.7,0-2-1.4-2-3.7,0-3.3,0-5.8.1-8.2,1.1,0,2.2,0,2.9,0h.4c0-.3,0-.5,0-.8,0-.2,0-.4,0-.6v-.2h0c-1.1.1-2.2.1-3.2.1v-.4c0-1.6,0-2,.2-4.2h0c0,0,0,0,0,0-.9.6-1.9,1-3,1.4h0Z"/>
  <path class="cls-1" d="M164,40.2v-2.7c0-1,0-1.4,0-3v-1.1c0-1,.1-3,.1-3.4h0c0,0,0,0,0,0h-.4c-.4.1-.8.2-1.3.2-.4,0-.8,0-1.2-.1h-.3s0,0,0,0h0v.9c0,2.1.1,3.4.1,7v6.5c0,2.2,0,5.1-.2,7.8h0c0,0,0,0,0,0,.5-.1,1-.2,1.5-.2.5,0,1.1,0,1.6.2h0v-.2c-.1-1.8-.2-3-.2-7.3s.5-3.5,1-4.1c.8-.9,1.9-1.3,3-1.3,3.2,0,3.4,2.5,3.4,5.8s0,4.1-.3,7h0c0,0,0,0,0,0,.5-.1,1-.2,1.6-.2.5,0,1,0,1.5.2h0c0-.5,0-2.6,0-3.2s0-3,0-4.7v-1.7c0-1.3,0-5.3-5.2-5.3-2.1,0-4.1,1-5.2,2.9Z"/>
  <path class="cls-1" d="M186.5,37c0,1.4.5,2.8,1.5,3.8.8.7,1.2.9,4.4,2.2h.3c2,1,3.7,1.8,3.7,4.2s-1.4,3.9-4.4,3.9c-2.1,0-4.1-1.2-5-3.1h-.5c0,1-.3,1.9-.5,2.8h0c1.6,1.1,3.5,1.7,5.5,1.7,5.2,0,7.6-3.4,7.6-6.7,0-1.5-.6-2.9-1.7-3.9-1-.9-1.6-1.1-4.7-2.3h-.2c-1.5-.6-3.5-1.4-3.5-3.8s.1-3.4,3.8-3.4c1.8-.2,3.6,1,4.1,2.8h.5c.1-1,.4-1.9.9-2.7h0c-1.6-.9-3.3-1.4-5.1-1.4-3.3,0-6.7,1.9-6.7,5.9Z"/>
  <path class="cls-1" d="M203.1,42l1.6,3.8c.6,1.4,1.2,2.8,1.6,3.9l1.2,3c-1.2,2.4-2.4,4.7-3.8,7.2h0c0,0,0,.2,0,.2h.1c.4-.1.9-.2,1.3-.2.3,0,.7,0,1,.2h0c1.5-4.7,3.3-9.2,5.5-13.5h0c.4-.8.7-1.6,1-2.3,2.4-5.3,2.6-5.8,3.2-6.6h0c0-.1-.1-.1-.1-.1-.4.1-.8.2-1.2.2-.4,0-.9,0-1.3-.2h0c-1.5,5-3.9,10.8-4.2,11-.1,0-.3-.3-.6-1-1.6-3.8-3.5-9.2-3.8-10h0c-.5.2-1.1.2-1.6.2-.6,0-1.3,0-1.9-.2h-.1,0c.8,2,1,2.4,1.9,4.5Z"/>
  <path class="cls-1" d="M222,52.7c4.3,0,5.8-2.6,5.8-4.9s-2.2-3.6-4.9-4.3c-1.8-.5-2.8-1.4-2.8-2.6s1-2.2,2.7-2.2c.7,0,1.3.1,1.9.5.6.4,1,1,1.1,1.7h.5c0-.9.3-1.8.6-2.5h0c-1.2-.7-2.6-1-4-1-3.9,0-5.2,2.4-5.2,4.5s2.6,3.8,3.5,4c3.2,1,4.1,1.3,4.1,3s-1.6,2.4-3,2.4c-.8,0-1.5-.2-2.2-.6-.7-.4-1.3-1.1-1.6-1.9h0c0,0-.4,0-.4,0h0c-.1.8-.4,1.6-.7,2.4h0c1.3.9,2.8,1.4,4.4,1.4Z"/>
  <path class="cls-1" d="M230,39.4h.7c.7,0,1-.1,1.7-.1v4.7c0,2.8,0,3.4,0,3.8,0,1.9.2,2.4.4,2.8.7,1.2,1.9,1.9,3.2,1.8.9,0,1.8-.2,2.6-.6h0c0-.3,0-.5,0-.8h0c0,0,0,0,0,0h-.2c-.4,0-1,.2-1.2.2-1.7,0-2-1.4-2-3.7,0-3.3,0-5.8.1-8.2,1.1,0,2.2,0,2.9,0h.4c0-.3,0-.5,0-.8,0-.2,0-.4,0-.6v-.2h0c-1.1.1-2.2.1-3.2.1v-.4c0-1.6,0-2,.2-4.2h0c0,0,0,0,0,0-1,.6-2,1-3,1.4h0c0,1.5,0,2.2,0,3.3-.6,0-1,0-1.4,0h-1c0,0,0,0,0,0h0c0,.3,0,.6,0,.8,0,.2,0,.5,0,.7h0Z"/>
  <path class="cls-1" d="M248.1,52.6c2.1.1,4.1-.6,5.6-2v-.3c0-.5,0-1,.2-1.5h0s-.4-.1-.4-.1h0c-1.1,1.6-2.8,2.5-4.7,2.4-1.7,0-3.3-.8-4.2-2.3-.6-1.2-.9-2.5-.8-3.9h10.8c0-1.1,0-3.9-1.8-5.8-1.3-1.2-3.1-1.8-4.9-1.7-5.3,0-7.2,4-7.2,7.7,0,4.7,2.8,7.6,7.3,7.6ZM243.9,43.6c.2-2.2,1.1-4.9,4.1-4.9s3.5.9,3.5,4.9h-7.6Z"/>
  <path class="cls-1" d="M258.4,39c.1,3.6.2,4.3.2,6.2s0,2.3-.1,5.2v1.7c0,0,0,0,0,0h0c.5-.1,1-.2,1.5-.2.5,0,1,0,1.5.2h0c-.2-2-.3-4-.3-6,0-3.1,0-4.4.8-5.5.6-.9,1.6-1.5,2.7-1.4,1.1,0,2.1.5,2.6,1.4.5,1.1.5,4.4.5,5,0,1.8,0,4.3-.2,6.4h0c0,0,0,0,0,0,.5-.1,1-.2,1.5-.2.5,0,1.1,0,1.6.2h0c-.1-2.1-.2-5.1-.2-7.5s.4-5.4,3.6-5.4c1,0,1.9.4,2.4,1.2.5.8.6,1.4.6,5.3,0,2.1,0,4.3-.3,6.4h0c0,0,0,0,0,0,.5-.1,1-.2,1.5-.2.5,0,1.1,0,1.6.2h0c0-1.8-.2-3.5-.2-5.2v-5c0-1.1-.3-2.1-.9-3-1-1.1-2.4-1.6-3.9-1.6-2,0-3.9,1-4.9,2.6-.8-1.7-2.6-2.8-4.5-2.6-1.9,0-3.6,1-4.6,2.6,0-.8,0-1.6.2-2.4h0c0,0,0,0,0,0h-.4c-.4.1-.8.2-1.1.2-.4,0-.7,0-1.1-.1h-.4c0,0,0,0,0,0h0c0,0,0,1.5,0,1.5Z"/>
  <polygon class="cls-1" points="280.2 63.5 87.6 63.5 87.5 63.5 87.5 63.6 87.5 64.5 87.5 64.6 87.6 64.6 280.2 64.6 280.3 64.6 280.3 64.5 280.3 63.6 280.3 63.5 280.2 63.5"/>
</svg>