<?xml version="1.0" encoding="utf-8"?>
<!-- Generator: Adobe Illustrator 28.2.0, SVG Export Plug-In . SVG Version: 6.00 Build 0)  -->
<svg version="1.1" id="Layer_1" xmlns="http://www.w3.org/2000/svg" xmlns:xlink="http://www.w3.org/1999/xlink" x="0px" y="0px"
	 viewBox="0 0 172 172" style="enable-background:new 0 0 172 172;" xml:space="preserve">
<style type="text/css">
	.st0{fill:#FFF8ED;}
	.st1{fill:#FFF8ED;stroke:#121317;stroke-linecap:round;stroke-linejoin:round;stroke-miterlimit:10;}
	.st2{fill:#909090;stroke:#121317;stroke-linecap:round;stroke-linejoin:round;stroke-miterlimit:10;}
	.st3{fill:#121317;stroke:#121317;stroke-linecap:round;stroke-linejoin:round;stroke-miterlimit:10;}
	.st4{fill:#9DDEE7;stroke:#121317;stroke-linecap:round;stroke-linejoin:round;stroke-miterlimit:10;}
	.st5{clip-path:url(#SVGID_00000023960041605861020650000004075046408905360818_);}
	.st6{fill:#F8D9A8;stroke:#121317;stroke-linecap:round;stroke-linejoin:round;stroke-miterlimit:10;}
	.st7{fill:#FFD9BF;stroke:#121317;stroke-linecap:round;stroke-linejoin:round;stroke-miterlimit:10;}
	.st8{fill:#E3C31E;stroke:#121317;stroke-linecap:round;stroke-linejoin:round;stroke-miterlimit:10;}
	.st9{fill:#FFFFFF;stroke:#121317;stroke-linecap:round;stroke-linejoin:round;stroke-miterlimit:10;}
	.st10{fill:#E5F0FF;stroke:#121317;stroke-linecap:round;stroke-linejoin:round;stroke-miterlimit:10;}
	.st11{fill:none;stroke:#121317;stroke-linecap:round;stroke-linejoin:round;stroke-miterlimit:10;}
	.st12{fill:#7C461F;stroke:#121317;stroke-linecap:round;stroke-linejoin:round;stroke-miterlimit:10;}
	.st13{fill:#F3900D;stroke:#121317;stroke-linecap:round;stroke-linejoin:round;stroke-miterlimit:10;}
	.st14{fill:#D5DEEC;stroke:#121317;stroke-linecap:round;stroke-linejoin:round;stroke-miterlimit:10;}
</style>
<circle class="st0" cx="86.17" cy="86.31" r="85.45"/>
<g>
	<g>
		<polygon class="st1" points="158.36,115.48 19.34,115.48 15.15,37.79 154.17,37.79 		"/>
		<path class="st2" d="M160.72,30.8H7.61l5.36,99.29h153.11L160.72,30.8z M19.34,115.48l-4.19-77.7h139.02l4.19,77.7H19.34z"/>
		<rect x="74.89" y="130.08" class="st3" width="21.52" height="11.84"/>
		<rect x="68.06" y="26.06" class="st3" width="32.73" height="4.74"/>
	</g>
	<path class="st4" d="M62.06,89.63l-18.68-1.23c0,0-2.4,20.25-10.62,32.24l9.9,8.29c0,0,8.12-6.92,11.69-26.14"/>
	<g>
		<defs>
			<polygon id="SVGID_1_" points="166.08,115.02 11.43,115.02 15.15,146.56 168.72,146.56 			"/>
		</defs>
		<clipPath id="SVGID_00000129200446867104517040000017425872120688376502_">
			<use xlink:href="#SVGID_1_"  style="overflow:visible;"/>
		</clipPath>
		<g style="clip-path:url(#SVGID_00000129200446867104517040000017425872120688376502_);">
			<polygon class="st6" points="158.36,115.48 19.34,115.48 15.15,37.79 154.17,37.79 			"/>
			<path class="st2" d="M160.72,30.8H7.61l5.36,99.29h153.11L160.72,30.8z M19.34,115.48l-4.19-77.7h139.02l4.19,77.7H19.34z"/>
			<rect x="54.61" y="137.91" class="st2" width="62.08" height="8.01"/>
			<rect x="74.89" y="130.08" class="st3" width="21.52" height="7.83"/>
			<rect x="68.06" y="26.06" class="st3" width="32.73" height="4.74"/>
		</g>
	</g>
	<path class="st7" d="M46.11,62.82l-5.57-5.45c0,0,1.02-1.1,3.55-2.67C47.56,52.56,53.34,56.85,46.11,62.82z"/>
	<path class="st8" d="M57,64.98V87.4h-6.57V64.98c1.15-0.42,2.25-0.66,3.28-0.66C54.75,64.32,55.85,64.55,57,64.98z"/>
	<path class="st7" d="M80.55,99.89c-0.42-0.49-0.9-1.06-1.45-1.69l6.16-5.08c1.07,1.48,1.67,2.36,1.67,2.36
		C90.76,101.05,84.77,104.8,80.55,99.89z"/>
	<path class="st4" d="M53.71,94.58"/>
	<path class="st4" d="M54.35,102.79l2.22,28.75h13.01c-1.39-28.28-6.38-47.02-6.38-47.02H44.23"/>
	<path class="st9" d="M71.6,137.9H58.37v-6.36h11.21C69.58,131.54,70.3,134.9,71.6,137.9z"/>
	<path class="st10" d="M41.97,82.15v9.59h11.74l-0.01-16.12l-3.28-10.64c0,0-2.95,0.66-13.12,6.07l8.79-8.23l-5.57-5.45
		c0,0-20.42,16.43-7.77,20.01c0,0,2.53,0.75,9.21,0.75"/>
	<path class="st10" d="M85.26,93.11L79.1,98.2c-0.56-0.67-1.19-1.41-1.84-2.2l6.37-5.11C84.25,91.72,84.8,92.47,85.26,93.11z"/>
	<path class="st10" d="M83.62,90.88l-6.37,5.11c-3.52-4.22-8.13-9.86-11.79-13.84v9.59H53.71V75.62L57,64.98
		C65.97,68.27,77.93,83.2,83.62,90.88z"/>
	<line class="st11" x1="41.97" y1="82.5" x2="41.97" y2="78.12"/>
	<line class="st11" x1="65.46" y1="82.5" x2="65.46" y2="78.12"/>
	<polyline class="st11" points="48.65,65.76 47.69,67.79 49.5,69.79 47.66,71.64 53.71,83.01 	"/>
	<polyline class="st11" points="58.77,65.76 59.73,67.79 57.92,69.79 59.76,71.64 53.71,83.01 	"/>
	<line class="st9" x1="43.9" y1="64.88" x2="38.13" y2="59.44"/>
	<g>
		<circle class="st9" cx="53.72" cy="58.91" r="5.4"/>
		<path class="st7" d="M53.72,64.32c2.98,0,5.4-2.42,5.4-5.4c0-2.98-2.42-5.4-5.4-5.4c-2.98,0-5.4,2.42-5.4,5.4
			C48.31,61.9,50.73,64.32,53.72,64.32"/>
		<path class="st11" d="M56.24,61.07c0,0,0.85-0.58,2.18,0.08"/>
		<path class="st12" d="M48.38,58.91c0,0.92,0.23,1.79,0.64,2.54c0,0,1.77-0.15,2.43-2.05c0.1-0.29,0.17-0.61,0.21-0.99
			c0,0,0.32,0.13,0.78,0.15c0.69,0.01,1.67-0.27,2.16-1.79c0.01-0.02,0.01-0.04,0.02-0.06c0.58-1.79,1.33-2.54,2.46-2.08
			c-0.91-0.7-2.05-1.12-3.28-1.12C50.81,53.51,48.38,55.93,48.38,58.91z"/>
	</g>
	<g>
		<path class="st9" d="M82.58,104.02l5.1,1.67c0.39,0.13,0.81-0.02,1.03-0.37l6.12-9.5c0.32-0.49,0.08-1.15-0.47-1.33l-5.1-1.67
			c-0.39-0.13-0.81,0.02-1.03,0.37l-6.12,9.5C81.79,103.17,82.02,103.83,82.58,104.02z"/>
		<polygon class="st13" points="84.91,101.2 88.67,102.42 93.01,95.68 89.25,94.45 		"/>
		<circle class="st11" cx="85.79" cy="103.35" r="0.07"/>
	</g>
	<g>
		<path class="st14" d="M129.54,52.63c-2.06-0.33-3.78,0.32-4.95,2.36c-0.77,1.35-2.04,2.12-3.54,1.66l0,0
			c-1.73-0.57-1.94-2.23-1.53-3.51c1.41-4.41,5.85-6.59,11.49-5.41c6.15,1.28,7.71,6.21,7.19,9.6c-0.53,3.46-2.01,4.93-4.83,6.49
			l-3.33,1.86c-0.91,0.49-0.87,0.89-1.07,1.93l-0.03,0.16c-0.35,1.92-1.75,2.52-3,2.23l0,0c-1.45-0.27-2.4-1.67-2.12-3.12l0.26-1.38
			c0.45-2.36,0.86-2.9,3.14-4.13l2.46-1.35c1.65-0.93,2.73-1.73,3.08-3.6C133.16,54.32,131.35,52.92,129.54,52.63z M127.47,76.64
			c0,1.58-1.28,2.86-2.86,2.86s-2.86-1.28-2.86-2.86c0-1.58,1.28-2.86,2.86-2.86S127.47,75.05,127.47,76.64z"/>
		<line class="st14" x1="108.83" y1="56.31" x2="108.83" y2="60.12"/>
		<line class="st14" x1="108.83" y1="64.79" x2="108.83" y2="68.59"/>
		<line class="st14" x1="103.51" y1="59.38" x2="106.81" y2="61.29"/>
		<line class="st14" x1="110.85" y1="63.62" x2="114.14" y2="65.52"/>
		<line class="st14" x1="103.51" y1="65.52" x2="106.81" y2="63.62"/>
		<line class="st14" x1="110.85" y1="61.29" x2="114.14" y2="59.38"/>
	</g>
	<line class="st4" x1="55.49" y1="95.12" x2="54.35" y2="102.79"/>
</g>
</svg>
